<svg width="281" height="123" viewBox="0 0 281 123" fill="none" xmlns="http://www.w3.org/2000/svg">
<path d="M221.671 39.8607C219.246 39.8607 218.422 39.1219 219.074 35.5001C220.003 30.3456 225.664 23.446 233.947 23.446H242.899C243.045 23.446 243.166 23.3398 243.192 23.1954L246.704 4.22469C247.268 1.15914 248.857 0 251.592 0C259.26 0 263.403 7.49829 262.149 13.4978L260.443 23.0893C260.41 23.2761 260.548 23.446 260.736 23.446L279.004 23.7941C280.613 23.7941 281.253 24.5159 280.91 26.7238C279.857 33.547 274.601 39.9159 267.066 39.9159H257.863C257.721 39.9159 257.6 40.0178 257.571 40.1621L253.774 59.6339C253.18 62.3428 252.077 63.2939 249.555 63.2939C244.458 63.2939 237.233 58.3092 238.617 50.4882L240.327 40.2725C240.357 40.0857 240.219 39.9159 240.031 39.9201L221.667 39.8564L221.671 39.8607Z" fill="#EC297B"/>
<path d="M195.655 93.2913C224.397 93.2913 232.609 85.6062 232.609 70.7497C232.609 52.5093 212.338 47.2953 204.511 47.2953C203.495 47.2953 161.227 47.3972 161.227 47.3972C161.039 47.3972 160.897 47.2189 160.935 47.032C163.113 37.7462 168.946 31.1098 174.846 31.1098C180.745 31.1098 184.726 32.804 184.726 32.804C184.726 32.804 186.264 29.5601 186.264 24.724C186.264 19.251 182.802 15.0815 173.432 15.0815C160.855 15.0815 145.435 20.4059 140.05 46.0767L126.168 109.167C124.533 118.431 132.812 122.35 141.534 122.35H143.984C144.31 122.35 144.59 122.117 144.657 121.794L157.473 63.2769C157.502 63.1368 157.623 63.0349 157.765 63.0349H173.181C166.228 72.4736 163.322 84.1881 163.322 92.3784C163.322 114.139 179.491 122.868 193.218 122.868C216.44 122.868 220.667 116.546 222.879 103.571L223.31 100.832C223.335 100.679 223.176 100.569 223.042 100.645C217.991 103.545 212.23 105.668 201.425 105.668C193.857 105.668 184.872 103.452 184.872 93.8093V93.2871H195.651L195.655 93.2913ZM212.46 71.272C212.46 77.6578 208.483 78.6981 197.19 78.6981H186.402C186.281 78.6981 186.193 78.575 186.227 78.4561C189.053 68.9792 193.414 64.3681 202.195 64.3681C208.483 64.3681 212.46 67.6247 212.46 71.272Z" fill="#1789FF"/>
<path d="M100.458 47.1679C80.4381 47.1679 73.7063 53.4306 70.1732 72.1849C70.1732 72.1849 79.4262 64.6271 94.0437 64.6271C102.126 64.6271 107.001 66.7119 107.001 71.6626C107.001 72.3122 106.387 76.745 105.743 76.745H100.458C86.321 76.745 72.8826 79.6025 66.0338 88.0009C64.2108 77.2502 54.2971 71.2083 44.9062 68.147C32.8476 64.2407 29.1263 62.415 29.1263 59.0267C29.1263 49.2526 38.6218 47.8218 45.8051 47.8218C62.8143 47.8218 69.3202 62.3301 69.3202 62.3301C69.3202 62.3301 70.5537 57.5916 71.599 51.4987C72.9495 43.6353 69.3662 28.9317 46.7041 28.9317C15.0105 28.9317 6.41397 49.5159 6.41397 59.6806C6.41397 86.1454 43.3675 82.9737 43.3675 92.7733C43.3675 102.573 34.7709 104.11 27.3284 104.11C18.0879 104.11 7.26276 101.269 2.43346 95.9493C2.2704 95.7667 1.97771 95.8431 1.92335 96.0809C1.92335 96.0809 0 101.732 0 107.367C0 117.136 10.0056 123 26.4294 123C45.8218 123 56.6679 116.848 62.0073 108.224C64.47 118.266 73.2547 122.868 82.4785 122.868C93.6047 122.868 98.9817 114.071 99.1281 114.198C99.8305 116.487 105.362 122.868 116.1 122.868C116.927 122.868 117.389 122.217 117.484 120.915C117.642 118.767 117.923 117.688 127.92 73.7983C131.231 59.256 117.392 47.1679 100.458 47.1679ZM102.126 97.0702C100.717 104.237 95.9671 106.713 91.3468 106.713C85.5726 106.713 82.7503 104.891 82.7503 100.981C82.7503 92.2511 89.9336 90.8202 96.7364 90.8202H103.042C103.23 90.8202 103.372 90.9985 103.334 91.1853L102.126 97.0744V97.0702Z" fill="#1789FF"/>
</svg>
